<svg xmlns="http://www.w3.org/2000/svg" viewBox="0 0 600 400" fill="none">
  <defs>
    <pattern id="dotgrid" x="0" y="0" width="40" height="40" patternUnits="userSpaceOnUse">
      <circle cx="20" cy="20" r="0.6" fill="#2f5430" opacity="0.18"></circle>
    </pattern>
  </defs>
  <rect width="600" height="400" fill="url(#dotgrid)"></rect>
  
  <g stroke="#2f5430" stroke-width="1" stroke-linecap="round" fill="none" opacity="0.75">
    <path d="M 80 340 Q 120 280 180 260"></path>
    <path d="M 180 260 Q 220 240 260 200"></path>
    <path d="M 180 260 Q 200 220 240 220"></path>
    <path d="M 260 200 Q 300 170 340 160"></path>
    <path d="M 260 200 Q 280 180 320 180"></path>
    <path d="M 340 160 Q 380 140 420 130"></path>
    <path d="M 340 160 Q 360 130 400 110"></path>
    <path d="M 420 130 Q 460 110 500 90"></path>
    <path d="M 420 130 Q 450 120 480 130"></path>
    <path d="M 240 220 Q 270 230 290 250"></path>
    <path d="M 320 180 Q 340 200 360 220"></path>
    <path d="M 400 110 Q 420 90 440 80"></path>
    <path d="M 480 130 Q 510 130 540 140"></path>
  </g>
  
  <g fill="#2f5430">
    <circle cx="80" cy="340" r="3.5"></circle>
    <circle cx="180" cy="260" r="3"></circle>
    <circle cx="260" cy="200" r="3"></circle>
    <circle cx="340" cy="160" r="3"></circle>
    <circle cx="420" cy="130" r="3"></circle>
    <circle cx="500" cy="90" r="3.5"></circle>
    <circle cx="240" cy="220" r="2"></circle>
    <circle cx="320" cy="180" r="2"></circle>
    <circle cx="400" cy="110" r="2"></circle>
    <circle cx="480" cy="130" r="2"></circle>
    <circle cx="290" cy="250" r="2"></circle>
    <circle cx="360" cy="220" r="2"></circle>
    <circle cx="440" cy="80" r="2"></circle>
    <circle cx="540" cy="140" r="2"></circle>
  </g>
  
  <circle cx="500" cy="90" r="5" fill="none" stroke="#b85730" stroke-width="1.5"></circle>
  <circle cx="500" cy="90" r="9" fill="none" stroke="#b85730" stroke-width="0.8" opacity="0.5"></circle>
</svg>